<svg width="25" height="24" viewBox="0 0 25 24" fill="none" xmlns="http://www.w3.org/2000/svg">
<g id="i.material-symbols-outlined">
<path id="Vector" d="M20.4837 20.9227L14.1863 14.6253C13.6865 15.0251 13.1118 15.3417 12.4621 15.5749C11.8123 15.8081 11.1209 15.9248 10.3879 15.9248C8.57201 15.9248 7.03515 15.2959 5.77734 14.038C4.51953 12.7802 3.89062 11.2434 3.89062 9.42747C3.89062 7.61156 4.51953 6.0747 5.77734 4.81689C7.03515 3.55908 8.57201 2.93018 10.3879 2.93018C12.2038 2.93018 13.7407 3.55908 14.9985 4.81689C16.2563 6.0747 16.8852 7.61156 16.8852 9.42747C16.8852 10.1605 16.7686 10.8519 16.5354 11.5016C16.3021 12.1513 15.9856 12.7261 15.5858 13.2259L21.8831 19.5233L20.4837 20.9227ZM10.3879 13.9256C11.6374 13.9256 12.6995 13.4883 13.5741 12.6136C14.4487 11.739 14.886 10.6769 14.886 9.42747C14.886 8.17799 14.4487 7.11593 13.5741 6.2413C12.6995 5.36666 11.6374 4.92934 10.3879 4.92934C9.13844 4.92934 8.07638 5.36666 7.20175 6.2413C6.32711 7.11593 5.88979 8.17799 5.88979 9.42747C5.88979 10.6769 6.32711 11.739 7.20175 12.6136C8.07638 13.4883 9.13844 13.9256 10.3879 13.9256Z" fill="#B3B3B3" fill-opacity="0.7"/>
</g>
</svg>
