<svg width="25" height="24" viewBox="0 0 25 24" fill="none" xmlns="http://www.w3.org/2000/svg">
<g id="Img">
<path id="Vector" d="M5.86744 17.0828C6.71708 16.4331 7.66669 15.9208 8.71625 15.546C9.76581 15.1711 10.8654 14.9837 12.0149 14.9837C13.1644 14.9837 14.2639 15.1711 15.3135 15.546C16.3631 15.9208 17.3127 16.4331 18.1623 17.0828C18.7454 16.3998 19.1994 15.6251 19.5242 14.7588C19.8491 13.8925 20.0115 12.9679 20.0115 11.985C20.0115 9.76923 19.2327 7.88251 17.675 6.32483C16.1173 4.76714 14.2306 3.9883 12.0149 3.9883C9.79913 3.9883 7.91242 4.76714 6.35474 6.32483C4.79705 7.88251 4.01821 9.76923 4.01821 11.985C4.01821 12.9679 4.18064 13.8925 4.50551 14.7588C4.83037 15.6251 5.28435 16.3998 5.86744 17.0828ZM12.0149 12.9846C11.032 12.9846 10.2031 12.6472 9.52841 11.9725C8.85369 11.2978 8.51633 10.4689 8.51633 9.48601C8.51633 8.50309 8.85369 7.67427 9.52841 6.99955C10.2031 6.32483 11.032 5.98747 12.0149 5.98747C12.9978 5.98747 13.8266 6.32483 14.5013 6.99955C15.1761 7.67427 15.5134 8.50309 15.5134 9.48601C15.5134 10.4689 15.1761 11.2978 14.5013 11.9725C13.8266 12.6472 12.9978 12.9846 12.0149 12.9846ZM12.0149 21.9808C10.6321 21.9808 9.33266 21.7184 8.1165 21.1936C6.90034 20.6688 5.84245 19.9566 4.94282 19.057C4.0432 18.1574 3.331 17.0995 2.80621 15.8833C2.28143 14.6672 2.01904 13.3677 2.01904 11.985C2.01904 10.6022 2.28143 9.30275 2.80621 8.08659C3.331 6.87043 4.0432 5.81254 4.94282 4.91292C5.84245 4.01329 6.90034 3.30109 8.1165 2.77631C9.33266 2.25153 10.6321 1.98914 12.0149 1.98914C13.3976 1.98914 14.6971 2.25153 15.9133 2.77631C17.1294 3.30109 18.1873 4.01329 19.0869 4.91292C19.9866 5.81254 20.6988 6.87043 21.2235 8.08659C21.7483 9.30275 22.0107 10.6022 22.0107 11.985C22.0107 13.3677 21.7483 14.6672 21.2235 15.8833C20.6988 17.0995 19.9866 18.1574 19.0869 19.057C18.1873 19.9566 17.1294 20.6688 15.9133 21.1936C14.6971 21.7184 13.3976 21.9808 12.0149 21.9808ZM12.0149 19.9816C12.8978 19.9816 13.7308 19.8525 14.5138 19.5943C15.2968 19.3361 16.0132 18.9654 16.6629 18.4823C16.0132 17.9991 15.2968 17.6284 14.5138 17.3702C13.7308 17.112 12.8978 16.9829 12.0149 16.9829C11.1319 16.9829 10.2989 17.112 9.51592 17.3702C8.73291 17.6284 8.01654 17.9991 7.36681 18.4823C8.01654 18.9654 8.73291 19.3361 9.51592 19.5943C10.2989 19.8525 11.1319 19.9816 12.0149 19.9816ZM12.0149 10.9854C12.448 10.9854 12.8062 10.8438 13.0894 10.5606C13.3726 10.2773 13.5143 9.91916 13.5143 9.48601C13.5143 9.05286 13.3726 8.69467 13.0894 8.41146C12.8062 8.12824 12.448 7.98664 12.0149 7.98664C11.5817 7.98664 11.2235 8.12824 10.9403 8.41146C10.6571 8.69467 10.5155 9.05286 10.5155 9.48601C10.5155 9.91916 10.6571 10.2773 10.9403 10.5606C11.2235 10.8438 11.5817 10.9854 12.0149 10.9854Z" fill="white"/>
</g>
</svg>
