<svg width="25" height="24" viewBox="0 0 25 24" fill="none" xmlns="http://www.w3.org/2000/svg">
<g id="Img">
<path id="Vector" d="M6.10722 19.9817C5.00768 19.9817 4.0664 19.5902 3.2834 18.8072C2.50039 18.0242 2.10889 17.0829 2.10889 15.9833V7.98668C2.10889 6.88713 2.50039 5.94586 3.2834 5.16285C4.0664 4.37985 5.00768 3.98834 6.10722 3.98834H18.1022C19.2018 3.98834 20.143 4.37985 20.926 5.16285C21.709 5.94586 22.1006 6.88713 22.1006 7.98668V15.9833C22.1006 17.0829 21.709 18.0242 20.926 18.8072C20.143 19.5902 19.2018 19.9817 18.1022 19.9817H6.10722ZM6.10722 7.98668H18.1022C18.4687 7.98668 18.8186 8.02832 19.1518 8.11162C19.485 8.19492 19.8015 8.3282 20.1014 8.51146V7.98668C20.1014 7.4369 19.9056 6.96627 19.5141 6.57476C19.1226 6.18326 18.652 5.98751 18.1022 5.98751H6.10722C5.55745 5.98751 5.08681 6.18326 4.69531 6.57476C4.30381 6.96627 4.10805 7.4369 4.10805 7.98668V8.51146C4.40793 8.3282 4.72446 8.19492 5.05766 8.11162C5.39085 8.02832 5.74071 7.98668 6.10722 7.98668ZM4.25799 11.2353L15.3784 13.9342C15.5283 13.9675 15.6782 13.9675 15.8282 13.9342C15.9781 13.9009 16.1197 13.8342 16.253 13.7343L19.7265 10.8355C19.5433 10.5856 19.31 10.3815 19.0268 10.2232C18.7436 10.065 18.4354 9.98584 18.1022 9.98584H6.10722C5.67407 9.98584 5.29506 10.0983 4.97019 10.3232C4.64533 10.5481 4.40793 10.8521 4.25799 11.2353Z" fill="white"/>
</g>
</svg>
