<svg width="47" height="47" xmlns="http://www.w3.org/2000/svg" xmlns:xlink="http://www.w3.org/1999/xlink" xml:space="preserve" overflow="hidden"><g transform="translate(-85 -208)"><path d="M123.188 232.969C121.817 232.969 120.74 232.185 120.74 231.255 120.74 230.325 121.817 229.542 123.188 229.542 124.558 229.542 125.635 230.325 125.635 231.255 125.635 232.185 124.558 232.969 123.188 232.969ZM120.74 238.354C119.369 238.354 118.292 237.571 118.292 236.641 118.292 235.71 119.369 234.927 120.74 234.927 122.11 234.927 123.188 235.71 123.188 236.641 123.188 237.571 122.11 238.354 120.74 238.354ZM115.354 224.646C113.983 224.646 112.906 223.863 112.906 222.932 112.906 222.002 113.983 221.219 115.354 221.219 116.725 221.219 117.802 222.002 117.802 222.932 117.802 223.863 116.725 224.646 115.354 224.646ZM115.354 241.292C113.983 241.292 112.906 240.508 112.906 239.578 112.906 238.648 113.983 237.865 115.354 237.865 116.725 237.865 117.802 238.648 117.802 239.578 117.802 240.508 116.725 241.292 115.354 241.292ZM108.5 242.76C107.129 242.76 106.052 241.977 106.052 241.047 106.052 240.117 107.129 239.333 108.5 239.333 109.871 239.333 110.948 240.117 110.948 241.047 110.948 241.977 109.871 242.76 108.5 242.76ZM105.856 222.981C106.64 222.198 107.668 222.051 108.206 222.59 108.745 223.128 108.549 224.156 107.815 224.94 107.031 225.723 106.003 225.87 105.465 225.331 104.877 224.793 105.073 223.716 105.856 222.981ZM101.646 241.781C100.275 241.781 99.1979 240.998 99.1979 240.068 99.1979 239.137 100.275 238.354 101.646 238.354 103.017 238.354 104.094 239.137 104.094 240.068 104.094 240.998 103.017 241.781 101.646 241.781ZM120.74 224.646C122.11 224.646 123.188 225.429 123.188 226.359 123.188 227.29 122.11 228.073 120.74 228.073 119.369 228.073 118.292 227.29 118.292 226.359 118.292 225.429 119.369 224.646 120.74 224.646ZM108.5 217.792C97.3865 217.792 99.149 222.149 100.177 223.177L102.625 225.625C104.192 227.241 102.282 229.052 100.471 228.269L94.351 225.625C90.0427 223.765 88.9167 229.003 88.9167 231.5 88.9167 239.089 97.6802 245.208 108.5 245.208 119.32 245.208 128.083 239.089 128.083 231.5 128.083 223.911 119.32 217.792 108.5 217.792Z" fill="#FFFFFF"/></g></svg>