<svg width="38" height="37" xmlns="http://www.w3.org/2000/svg" xmlns:xlink="http://www.w3.org/1999/xlink" xml:space="preserve" overflow="hidden"><defs><clipPath id="clip0"><rect x="88" y="427" width="38" height="37"/></clipPath></defs><g clip-path="url(#clip0)" transform="translate(-88 -427)"><path d="M17.7068 14.4462C17.9612 13.6831 19.0388 13.6831 19.2932 14.4462L20.7847 18.9255C21.4504 20.9219 23.0175 22.4882 25.0143 23.1528L29.4913 24.6443C30.2544 24.8987 30.2544 25.9763 29.4913 26.2307L25.012 27.7222C23.0156 28.3878 21.4493 29.955 20.7847 31.9518L19.2932 36.4288C19.1494 36.8668 18.6777 37.1055 18.2397 36.9616 17.9874 36.8788 17.7896 36.6811 17.7068 36.4288L16.2153 31.9495C15.5501 29.9536 13.9839 28.3873 11.988 27.7222L7.50869 26.2307C7.07063 26.0868 6.83205 25.6153 6.97582 25.1771 7.05861 24.9248 7.25644 24.7271 7.50869 24.6443L11.988 23.1528C13.9839 22.4876 15.5501 20.9214 16.2153 18.9255L17.7068 14.4462ZM8.77362 2.65475C8.86074 2.39166 9.14464 2.249 9.40774 2.33611 9.55835 2.38599 9.67649 2.50414 9.72637 2.65475L10.6213 5.34188C11.0214 6.53975 11.9602 7.47862 13.1581 7.87869L15.8453 8.77362C16.1083 8.86074 16.251 9.14464 16.1639 9.40774 16.114 9.55835 15.9959 9.67649 15.8453 9.72637L13.1581 10.6213C11.9603 11.0204 11.0204 11.9603 10.6213 13.1581L9.72637 15.8453C9.63926 16.1083 9.35536 16.251 9.09226 16.1639 8.94165 16.114 8.82351 15.9959 8.77362 15.8453L7.87869 13.1581C7.47962 11.9603 6.5397 11.0204 5.34188 10.6213L2.65475 9.72637C2.39166 9.63926 2.249 9.35536 2.33611 9.09226 2.38599 8.94165 2.50414 8.82351 2.65475 8.77362L5.34188 7.87869C6.5397 7.47962 7.47962 6.5397 7.87869 5.34188L8.77362 2.65475ZM25.1207 0.228937C25.1813 0.0539668 25.3723-0.038699 25.5473 0.0219627 25.6445 0.0556103 25.7206 0.131886 25.7543 0.228937L26.3509 2.01881C26.6169 2.81894 27.2436 3.44563 28.0437 3.71156L29.8336 4.30819C30.0086 4.36884 30.1011 4.55986 30.0405 4.73484 30.007 4.8319 29.9307 4.90817 29.8336 4.94181L28.0437 5.53844C27.2443 5.8044 26.6169 6.43171 26.3509 7.23119L25.7543 9.02106C25.6937 9.19603 25.5027 9.28869 25.3277 9.22803 25.2305 9.19438 25.1544 9.11812 25.1207 9.02106L24.5241 7.23119C24.2581 6.43171 23.6307 5.8044 22.8313 5.53844L21.0438 4.94181C20.8688 4.88116 20.7761 4.69014 20.8368 4.51516 20.8704 4.4181 20.9467 4.34183 21.0438 4.30819L22.8336 3.71156C23.6338 3.44563 24.2604 2.81894 24.5264 2.01881L25.1207 0.23125Z" fill="#FFFFFF" transform="matrix(1.02703 0 0 1 88 427)"/></g></svg>